# xmcd CD database file
#
# Track frame offsets:
#	150
#	13080
#	27310
#	39537
#	54135
#	69417
#	82407
#	97895
#	110887
#	123830
#	136662
#	152427
#	165207
#	177182
#	190592
#	203562
#	218380
#	231197
#
# Disc length: 3268 seconds
#
# Revision: 0
# Processed by: cddbd v1.5.2PL0 Copyright (c) Steve Scherf et al.
# Submitted via: CDex 1.70beta2
#
DISCID=da0cc212
DTITLE=Mamphis Minnie - The Queen of the Blues 1929-1941
DYEAR=1997
DGENRE=Blues
TTITLE0=Frisco Town
TTITLE1=Can I do it for you
TTITLE2=I never told a lie
TTITLE3=Don't want no woman
TTITLE4=Memphis Minne-Jitis blues
TTITLE5=Plymouth rock blues
TTITLE6=Georgia skin blues
TTITLE7=New bumble be blues
TTITLE8=Frankie Jean
TTITLE9=What's the matter with the mill
TTITLE10=Crazy cryin' blues
TTITLE11=Today today blues
TTITLE12=Soo cow soo
TTITLE13=Too late
TTITLE14=Drunken barrelhouse blues
TTITLE15=Chickassaw train blues
TTITLE16=Squat it
TTITLE17=Moaning the blues
EXTD=YEAR: 1997
EXTT0=
EXTT1=
EXTT2=
EXTT3=
EXTT4=
EXTT5=
EXTT6=
EXTT7=
EXTT8=
EXTT9=
EXTT10=
EXTT11=
EXTT12=
EXTT13=
EXTT14=
EXTT15=
EXTT16=
EXTT17=
PLAYORDER=
